<svg width="547" height="497" viewBox="0 0 547 497" fill="none" xmlns="http://www.w3.org/2000/svg">
<rect width="547" height="497" rx="99" fill="black"/>
<path d="M287.062 81.499C288.095 81.8719 289.129 82.2448 290.193 82.629C293.574 83.8519 296.948 85.0915 300.323 86.3313C302.683 87.1904 305.045 88.0459 307.407 88.9014C313.329 91.0492 319.246 93.2119 325.162 95.3782C329.919 97.1184 334.68 98.848 339.441 100.577C346.088 102.993 352.733 105.416 359.376 107.844C368.805 111.29 378.242 114.714 387.681 118.133C390.376 119.11 393.071 120.086 395.767 121.063C403.741 123.953 411.715 126.841 419.69 129.728C432.341 134.306 444.99 138.891 457.633 143.493C463.407 145.595 469.183 147.688 474.964 149.769C478.034 150.876 481.1 151.993 484.165 153.113C485.524 153.607 486.884 154.097 488.246 154.583C502.366 159.626 502.366 159.626 506.318 165.522C507.853 170.238 507.741 175.718 505.643 180.24C499.918 188.612 484.589 191.639 475.315 194.388C474.702 194.388 474.088 194.388 473.456 194.388C472.699 210.139 472.171 225.88 471.893 241.647C471.759 248.973 471.557 256.285 471.183 263.604C468.521 302.013 468.521 302.013 485.216 335.092C492.186 342.255 499.828 348.596 507.883 354.49C511.721 357.367 513.967 359.864 514.826 364.7C514.844 365.616 514.862 366.532 514.88 367.476C514.92 368.385 514.959 369.294 515 370.231C513.365 377.888 506.469 382.924 500.744 387.715C481.465 403.292 481.465 403.292 472.047 425.103C471.593 431.851 472.007 438.737 473.141 445.407C473.685 448.974 473.506 450.465 471.757 453.688C469.124 456.892 467.156 458.56 463.231 459.872C458.008 460.215 454.718 460.05 450.217 457.077C447.147 453.916 445.721 451.086 444.639 446.83C444.918 443.779 444.918 443.779 445.529 440.43C446.812 430.668 447.661 420.357 442.105 411.738C433.853 401.039 423.484 391.911 413.275 383.132C412.553 382.509 411.83 381.886 411.086 381.244C410.451 380.707 409.816 380.171 409.162 379.618C405.356 375.78 404.015 372.088 403.738 366.719C404.508 359.898 409.049 355.397 413.963 350.884C415.702 349.527 417.479 348.237 419.27 346.95C430.664 338.703 442.307 329.136 445.332 314.753C447.691 299.18 446.932 283.169 446.266 267.482C445.985 260.716 445.882 253.95 445.789 247.179C445.596 233.3 445.192 219.435 444.639 205.566C443.72 205.905 442.8 206.243 441.853 206.592C438.448 207.845 435.042 209.094 431.635 210.342C430.16 210.883 428.684 211.425 427.21 211.969C425.092 212.748 422.974 213.524 420.855 214.299C420.194 214.544 419.532 214.788 418.851 215.04C414.175 216.744 414.175 216.744 412.104 216.744C412.112 217.907 412.121 219.069 412.129 220.266C412.205 231.23 412.26 242.195 412.297 253.159C412.316 258.796 412.342 264.432 412.385 270.069C412.425 275.511 412.447 280.953 412.457 286.395C412.464 288.469 412.477 290.543 412.497 292.616C412.524 295.526 412.528 298.435 412.526 301.346C412.54 302.198 412.553 303.051 412.567 303.93C412.521 311.056 410.476 316.133 405.713 321.424C373.067 352.107 323.136 360.127 280.104 361.13C278.903 361.161 278.903 361.161 277.677 361.192C230.4 362.226 173.669 356.889 137.048 323.262C128.885 315.293 128.885 315.293 128.355 310.72C128.357 309.653 128.357 309.653 128.36 308.565C128.357 307.745 128.355 306.925 128.352 306.08C128.362 304.741 128.362 304.741 128.373 303.375C128.372 302.43 128.372 301.484 128.372 300.51C128.373 297.385 128.387 294.26 128.402 291.135C128.405 288.968 128.408 286.802 128.41 284.635C128.417 278.932 128.435 273.229 128.456 267.526C128.475 261.707 128.483 255.888 128.493 250.068C128.513 238.65 128.544 227.231 128.584 215.813C127.661 215.54 127.661 215.54 126.719 215.261C122.605 214.035 118.509 212.81 114.479 211.324C113.654 211.022 112.829 210.719 111.979 210.407C111.116 210.087 110.253 209.767 109.364 209.438C107.975 208.927 107.975 208.927 106.558 208.405C103.576 207.307 100.597 206.204 97.6171 205.1C95.5645 204.342 93.5119 203.583 91.4593 202.824C86.4519 200.971 81.4464 199.114 76.4415 197.254C73.9838 196.342 71.5253 195.432 69.0662 194.523C65.2945 193.129 61.5274 191.723 57.7616 190.312C56.7001 189.92 55.6387 189.528 54.545 189.124C48.8152 186.96 43.658 184.984 39.4605 180.357C37.5222 175.285 37.4847 169.679 39.5186 164.637C43.1537 160.492 46.8901 158.358 52.0389 156.494C52.9721 156.152 52.9721 156.152 53.9242 155.803C56.0331 155.032 58.1463 154.275 60.2598 153.517C61.7971 152.959 63.3341 152.399 64.8709 151.839C69.2956 150.23 73.7247 148.633 78.1545 147.038C83.0796 145.262 88.0021 143.479 92.9249 141.697C100.815 138.841 108.706 135.988 116.599 133.14C130.789 128.02 144.973 122.884 159.143 117.712C177.427 111.04 195.722 104.403 214.022 97.7758C220.962 95.2619 227.902 92.7455 234.842 90.2284C237.872 89.1297 240.901 88.031 243.931 86.9324C245.88 86.2253 247.83 85.5181 249.779 84.8108C252.475 83.8327 255.171 82.855 257.867 81.8775C258.67 81.5862 259.472 81.2949 260.299 80.9948C261.034 80.7283 261.769 80.4618 262.527 80.1873C263.165 79.9558 263.803 79.7243 264.461 79.4858C272.889 76.478 278.956 78.4906 287.062 81.499ZM267.86 109.071C267.046 109.363 266.231 109.655 265.392 109.955C264.495 110.28 263.599 110.605 262.675 110.94C261.731 111.28 260.788 111.619 259.816 111.968C256.662 113.104 253.51 114.243 250.358 115.383C248.132 116.186 245.906 116.988 243.68 117.79C237.196 120.128 230.714 122.472 224.233 124.818C222.504 125.443 220.775 126.069 219.046 126.694C203.352 132.373 187.665 138.068 171.981 143.772C168.507 145.035 165.034 146.297 161.56 147.559C155.807 149.65 150.054 151.742 144.302 153.836C142.16 154.615 140.018 155.394 137.876 156.173C123.588 161.367 109.339 166.654 95.1189 172.031C97.1249 174.042 98.3572 174.542 100.992 175.494C102.252 175.954 102.252 175.954 103.538 176.424C104.459 176.754 105.38 177.084 106.328 177.424C107.289 177.773 108.249 178.123 109.239 178.482C111.32 179.239 113.402 179.992 115.484 180.744C121.057 182.756 126.622 184.786 132.189 186.812C133.315 187.221 134.441 187.63 135.601 188.052C145.326 191.589 155.028 195.186 164.721 198.813C167.104 199.704 169.487 200.594 171.871 201.485C173.543 202.11 175.216 202.736 176.888 203.361C188.969 207.876 201.059 212.366 213.148 216.858C214.993 217.544 216.839 218.23 218.685 218.917C219.277 219.137 219.869 219.356 220.478 219.583C221.661 220.023 222.844 220.463 224.026 220.902C226.918 221.978 229.811 223.051 232.705 224.12C237.9 226.042 243.087 227.977 248.249 229.987C249.989 230.664 251.733 231.334 253.476 232.004C255.636 232.836 257.793 233.679 259.943 234.535C268.416 237.774 273.761 236.818 282.018 233.708C282.753 233.438 283.489 233.167 284.247 232.888C285.863 232.292 287.477 231.694 289.091 231.093C293.655 229.395 298.228 227.718 302.799 226.038C303.794 225.671 304.79 225.305 305.816 224.927C313.721 222.018 321.641 219.151 329.568 216.3C330.477 215.973 330.477 215.973 331.405 215.64C334.518 214.521 337.631 213.402 340.745 212.284C363.468 204.122 386.17 195.903 408.85 187.619C410.795 186.908 412.74 186.198 414.686 185.487C415.613 185.149 416.54 184.81 417.496 184.461C428.082 180.599 438.684 176.779 449.287 172.963C447.844 170.07 445.035 169.724 442.134 168.72C441.471 168.485 440.808 168.249 440.126 168.006C438.66 167.486 437.193 166.969 435.725 166.454C431.584 165.001 427.451 163.525 423.317 162.054C422.421 161.736 421.525 161.418 420.602 161.09C410.714 157.575 400.857 153.974 391.001 150.372C369.32 142.449 347.617 134.586 325.904 126.751C304.509 119.031 304.509 119.031 293.943 115.158C293.194 114.883 292.446 114.609 291.675 114.327C288.375 113.118 285.077 111.906 281.781 110.687C280.697 110.289 279.613 109.891 278.496 109.481C277.581 109.143 276.667 108.805 275.724 108.457C272.558 107.414 270.926 107.965 267.86 109.071ZM157.4 226.991C157.185 236.7 157.02 246.408 156.919 256.119C156.87 260.628 156.805 265.136 156.699 269.645C156.598 274 156.542 278.353 156.518 282.709C156.501 284.367 156.468 286.025 156.418 287.683C155.899 296.907 155.899 296.907 159.413 305.093C161.762 307.009 164.02 308.486 166.696 309.897C167.285 310.266 167.875 310.636 168.482 311.016C190.478 324.509 218.565 329.103 243.851 331.322C244.989 331.425 246.128 331.528 247.301 331.635C291.178 334.989 342.623 331.566 379.569 305.239C380.227 304.889 380.885 304.539 381.563 304.179C383.751 301.978 383.726 300.338 383.75 297.308C383.736 296.613 383.723 295.917 383.709 295.201C383.71 294.464 383.71 293.728 383.711 292.969C383.708 290.535 383.679 288.101 383.65 285.666C383.643 283.978 383.638 282.291 383.634 280.603C383.62 276.16 383.584 271.718 383.543 267.275C383.504 262.742 383.487 258.209 383.469 253.676C383.429 244.781 383.365 235.886 383.287 226.991C365.901 233.125 348.52 239.274 331.182 245.542C328.262 246.597 325.341 247.649 322.42 248.7C313.505 251.911 304.601 255.145 295.736 258.496C293.65 259.278 291.563 260.061 289.476 260.843C287.609 261.548 285.749 262.27 283.888 262.993C269.809 268.272 261.329 265.152 247.802 260.002C246.047 259.347 244.292 258.694 242.537 258.042C238.649 256.595 234.765 255.139 230.883 253.676C220.387 249.723 209.873 245.819 199.361 241.91C195.507 240.476 191.655 239.038 187.805 237.596C185.371 236.685 182.937 235.776 180.502 234.867C178.831 234.243 177.161 233.616 175.492 232.988C169.517 230.761 163.535 228.728 157.4 226.991ZM456.665 349.799C455.896 350.58 455.127 351.36 454.334 352.164C453.502 353.005 452.669 353.846 451.811 354.712C450.931 355.609 450.051 356.507 449.171 357.404C448.284 358.302 447.397 359.2 446.509 360.097C444.332 362.3 442.16 364.508 439.991 366.719C441.373 369.948 443.205 372.02 445.692 374.477C446.441 375.222 447.19 375.966 447.962 376.733C448.744 377.502 449.527 378.27 450.333 379.062C451.122 379.845 451.912 380.628 452.726 381.435C454.674 383.365 456.626 385.291 458.583 387.213C461.805 385.828 463.872 383.992 466.324 381.5C467.067 380.75 467.81 379.999 468.576 379.226C469.343 378.442 470.11 377.658 470.9 376.85C471.681 376.058 472.462 375.267 473.267 374.452C475.194 372.499 477.115 370.543 479.033 368.582C477.656 365.382 475.845 363.285 473.398 360.825C472.657 360.08 471.917 359.336 471.154 358.569C470.38 357.8 469.606 357.032 468.808 356.24C468.034 355.457 467.26 354.674 466.462 353.867C465.722 353.128 464.981 352.388 464.218 351.626C463.539 350.947 462.859 350.268 462.159 349.569C459.664 347.419 459.114 347.615 456.665 349.799Z" fill="white"/>
</svg>
