<svg width="500" height="500" viewBox="0 0 500 500" fill="none" xmlns="http://www.w3.org/2000/svg">
<rect width="500" height="500" rx="84" fill="black"/>
<path d="M230.23 101.198C211.566 103.471 189.397 110.005 172.817 118.149C160.974 124.021 143.636 135.29 131.888 144.666C120.046 154.23 101.097 173.549 89.6337 187.849C79.3069 200.539 60.1691 228.665 51.5477 243.533L47.0001 251.393L49.7476 256.318C54.3899 264.841 69.6433 287.38 77.3173 297.229C105.74 333.783 138.805 362.193 172.059 378.861C214.503 400.074 260.737 403.767 304.413 389.372C345.72 375.735 389.775 340.601 425.398 292.872C432.977 282.645 445.009 264.273 450.03 255.276L452.209 251.299L448.988 246.28C423.218 205.369 404.554 181.125 381.722 158.871C355.857 133.775 331.414 118.244 302.897 108.774C285.085 102.903 274.948 101.387 252.968 101.103C242.262 100.914 232.03 101.009 230.23 101.198ZM284.706 139.836C315.308 146.276 344.583 160.481 371.395 181.694C382.953 190.88 405.691 214.081 421.324 232.643L434.872 248.647L432.029 252.151C410.239 279.709 376.795 311.15 352.068 327.343C319.477 348.746 290.391 358.595 255.81 359.826C210.05 361.436 166.185 344.863 123.172 309.918C110.666 299.691 81.2017 270.712 71.1591 258.496L64.243 250.257L68.2222 244.954C101.003 202.528 133.783 173.833 169.122 156.503C184.47 149.022 193.944 145.518 210.429 141.446C227.104 137.279 232.978 136.711 254.389 137.09C270.211 137.374 275.232 137.752 284.706 139.836Z" fill="white"/>
<path d="M240.694 158.202C218.575 160.474 200.899 168.899 184.829 184.993C166.586 203.074 157.512 224.658 157.512 249.745C157.512 265.555 160.915 279.471 168.193 293.198C190.028 334.473 240.41 352.743 284.837 335.514C305.443 327.657 324.254 309.575 333.895 288.559C338.905 277.767 340.984 268.584 341.552 254.763C342.308 237.344 340.228 226.362 332.95 210.269C325.577 193.607 308.468 175.905 291.548 167.385C277.369 160.19 256.763 156.498 240.694 158.202ZM256.29 190.199C258.842 192.755 259.599 198.814 257.519 200.897C256.668 201.749 261.773 202.033 280.678 202.033C294.006 202.033 304.971 202.317 304.971 202.601C304.971 202.885 303.647 205.536 301.946 208.565L298.921 214.056L308.657 239.521C314.045 253.532 319.055 265.46 319.811 266.123C321.04 267.069 320.756 268.016 317.826 272.371C311.871 281.364 304.971 285.34 295.613 285.34C286.066 285.34 279.732 281.743 273.777 272.749C269.807 266.88 269.24 265.271 271.131 265.744C271.887 265.839 275.951 256.845 281.906 241.793C287.2 228.54 291.832 216.706 292.115 215.476L292.777 213.393H274.344H255.818V256.656V300.014L258.748 299.919C268.389 299.635 276.991 302.948 283.135 309.386L286.444 312.794H250.146H213.849L217.157 309.386C223.206 303.043 232.186 299.54 242.3 299.54H245.42L245.325 256.467L245.231 213.393H226.042H206.948L211.863 225.889C214.605 232.8 219.236 244.728 222.261 252.491C225.191 260.159 228.027 266.123 228.5 265.839C230.39 264.703 229.162 268.111 226.042 272.749C218.764 283.636 206.948 288.18 195.889 284.394C191.352 282.879 183.979 276.157 180.67 270.667C178.024 266.028 177.835 265.365 179.536 265.933C180.292 266.312 183.979 257.887 190.973 240.279C202.127 211.784 201.749 214.15 196.739 206.009L194.282 202.033H219.425H244.475L242.962 199.666C238.047 192.187 249.862 183.667 256.29 190.199Z" fill="white"/>
<path d="M195.614 245.432C191.148 256.621 187.442 266.009 187.442 266.293C187.442 266.578 194.949 266.768 204.166 266.768C217.184 266.768 220.795 266.483 220.415 265.535C220.13 264.966 216.424 255.673 212.243 245.052C207.967 234.432 204.356 225.518 204.166 225.329C203.976 225.139 200.175 234.147 195.614 245.432Z" fill="white"/>
<path d="M294.846 226.443C294.371 227.694 290.757 237.125 286.763 247.327C282.768 257.625 279.535 266.19 279.535 266.383C279.535 266.575 286.953 266.768 296.082 266.768H312.535L304.546 245.883C300.172 234.431 296.368 224.807 296.178 224.614C295.987 224.325 295.322 225.191 294.846 226.443Z" fill="white"/>
</svg>
