<svg width="1897" height="1078" viewBox="0 0 1897 1078" fill="none" xmlns="http://www.w3.org/2000/svg">
<rect width="1896.66" height="1078" fill="#FFF2D9"/>
<path d="M1540.05 267C1637.25 267 1716.57 346.852 1716.57 446C1716.57 545.148 1637.25 625 1540.05 625C1442.85 625 1363.53 545.148 1363.53 446C1363.53 346.852 1442.85 267 1540.05 267Z" stroke="#F2C94C" stroke-opacity="0.25" stroke-width="50"/>
<path d="M1216.71 875.688C1216.71 878.361 1214.57 880.532 1211.93 880.532C1209.29 880.532 1207.15 878.361 1207.15 875.688C1207.15 873.015 1209.29 870.845 1211.93 870.845C1214.57 870.845 1216.71 873.01 1216.71 875.688Z" stroke="#4D2C5E" stroke-opacity="0.19" stroke-width="2" stroke-miterlimit="10" stroke-linecap="round" stroke-linejoin="round"/>
<path d="M1263.14 917.696C1265.78 917.696 1267.92 915.528 1267.92 912.853C1267.92 910.178 1265.78 908.009 1263.14 908.009C1260.49 908.009 1258.35 910.178 1258.35 912.853C1258.35 915.528 1260.49 917.696 1263.14 917.696Z" stroke="#4D2C5E" stroke-opacity="0.19" stroke-width="2" stroke-miterlimit="10" stroke-linecap="round" stroke-linejoin="round"/>
<path d="M1245.12 902.895C1250.76 902.895 1255.33 898.27 1255.33 892.565C1255.33 886.86 1250.76 882.235 1245.12 882.235C1239.49 882.235 1234.92 886.86 1234.92 892.565C1234.92 898.27 1239.49 902.895 1245.12 902.895Z" stroke="#4D2C5E" stroke-opacity="0.19" stroke-width="2" stroke-miterlimit="10" stroke-linecap="round" stroke-linejoin="round"/>
<path d="M1262.9 892.565L1259.5 898.587L1257.69 905.291L1251.08 907.113L1245.12 910.563L1239.17 907.113L1232.54 905.291L1230.75 898.587L1227.34 892.565L1230.75 886.537L1232.54 879.833L1239.17 878.011L1245.12 874.561L1251.08 878.011L1257.69 879.833L1259.5 886.537L1262.9 892.565Z" stroke="#4D2C5E" stroke-opacity="0.19" stroke-width="2" stroke-miterlimit="10" stroke-linecap="round" stroke-linejoin="round"/>
<path d="M1258.35 912.853C1258.35 910.18 1260.5 908.009 1263.14 908.009C1264.56 908.009 1265.84 908.646 1266.72 909.65C1270.36 904.936 1272.54 899.01 1272.54 892.559C1272.54 877.228 1260.26 864.8 1245.12 864.8C1229.97 864.8 1217.69 877.228 1217.69 892.559C1217.69 907.891 1229.97 920.318 1245.12 920.318C1250.44 920.318 1255.4 918.779 1259.61 916.123C1258.84 915.26 1258.35 914.116 1258.35 912.853Z" stroke="#4D2C5E" stroke-opacity="0.19" stroke-width="2" stroke-miterlimit="10" stroke-linecap="round" stroke-linejoin="round"/>
<path d="M1245.12 855C1232.33 855 1221.04 861.558 1214.38 871.533C1215.77 872.378 1216.71 873.923 1216.71 875.694C1216.71 878.367 1214.57 880.538 1211.93 880.538C1211.28 880.538 1210.66 880.402 1210.1 880.165C1208.75 884.05 1208.02 888.217 1208.02 892.565C1208.02 913.309 1224.64 930.13 1245.13 930.13C1265.62 930.13 1282.24 913.309 1282.24 892.565C1282.24 871.82 1265.61 855 1245.12 855Z" stroke="#4D2C5E" stroke-opacity="0.19" stroke-width="2" stroke-miterlimit="10" stroke-linecap="round" stroke-linejoin="round"/>
<path d="M1356.15 252.226L1333.13 244.31C1330.7 243.476 1329.4 240.8 1330.22 238.337C1331.05 235.874 1333.69 234.559 1336.12 235.394L1359.14 243.309C1361.57 244.143 1362.87 246.82 1362.05 249.276C1361.22 251.745 1358.59 253.067 1356.15 252.226Z" stroke="#4D2C5E" stroke-opacity="0.19" stroke-width="3" stroke-miterlimit="10"/>
<path d="M1353.13 261.249L1330.1 253.334C1327.67 252.499 1326.37 249.823 1327.2 247.367C1328.02 244.904 1330.66 243.589 1333.1 244.424L1356.12 252.332C1358.55 253.167 1359.85 255.843 1359.03 258.306C1358.2 260.769 1355.56 262.083 1353.13 261.249Z" stroke="#4D2C5E" stroke-opacity="0.19" stroke-width="3" stroke-miterlimit="10"/>
<path d="M1332.66 211.053C1332.69 211.133 1332.71 211.207 1332.73 211.287C1333.25 212.949 1336.28 223.48 1335.02 235.167L1359.71 243.416C1365.57 233.265 1374.2 226.637 1375.59 225.609C1375.65 225.563 1375.72 225.516 1375.78 225.469C1376.45 224.982 1377.1 224.461 1377.74 223.907C1381.46 220.657 1384.38 216.379 1386.03 211.32C1390.89 196.423 1382.9 180.359 1368.18 175.44C1353.47 170.521 1337.6 178.61 1332.74 193.507C1331.09 198.572 1330.92 203.772 1332 208.624C1332.19 209.438 1332.4 210.252 1332.66 211.053Z" stroke="#4D2C5E" stroke-opacity="0.19" stroke-width="3" stroke-miterlimit="10"/>
<path d="M1331.36 253.881C1331.09 258.82 1334.09 263.525 1338.96 265.153C1343.76 266.755 1348.87 264.853 1351.58 260.829L1331.36 253.881Z" stroke="#4D2C5E" stroke-opacity="0.19" stroke-width="3" stroke-miterlimit="10"/>
<path d="M1342.75 237.616L1350.09 215.104C1350.81 212.888 1349.62 210.499 1347.43 209.765C1345.24 209.031 1342.88 210.239 1342.16 212.455C1341.43 214.67 1342.62 217.06 1344.81 217.794L1353.62 220.737" stroke="#4D2C5E" stroke-opacity="0.19" stroke-width="3" stroke-miterlimit="10"/>
<path d="M1352.43 240.853L1359.77 218.341C1360.49 216.125 1362.85 214.924 1365.04 215.652C1367.23 216.386 1368.42 218.775 1367.7 220.991C1366.97 223.207 1364.61 224.408 1362.42 223.681L1353.61 220.737" stroke="#4D2C5E" stroke-opacity="0.19" stroke-width="3" stroke-miterlimit="10"/>
<path d="M1391.25 219.075L1398.68 221.565" stroke="#4D2C5E" stroke-opacity="0.19" stroke-width="3" stroke-miterlimit="10" stroke-linecap="round"/>
<path d="M1394.66 209.591L1402.4 208.41" stroke="#4D2C5E" stroke-opacity="0.19" stroke-width="3" stroke-miterlimit="10" stroke-linecap="round"/>
<path d="M1386.04 227.211L1391.57 232.831" stroke="#4D2C5E" stroke-opacity="0.19" stroke-width="3" stroke-miterlimit="10" stroke-linecap="round"/>
<path d="M1322.17 195.996L1314.74 193.513" stroke="#4D2C5E" stroke-opacity="0.19" stroke-width="3" stroke-miterlimit="10" stroke-linecap="round"/>
<path d="M1325.01 186.319L1319.49 180.699" stroke="#4D2C5E" stroke-opacity="0.19" stroke-width="3" stroke-miterlimit="10" stroke-linecap="round"/>
<path d="M1321.57 205.667L1313.83 206.848" stroke="#4D2C5E" stroke-opacity="0.19" stroke-width="3" stroke-miterlimit="10" stroke-linecap="round"/>
<path d="M1123.17 330.578L1054.81 309.906C1049.84 308.404 1047.01 303.107 1048.5 298.073L1062.15 251.788C1063.63 246.755 1068.87 243.898 1073.84 245.4L1142.2 266.073C1147.17 267.575 1150 272.872 1148.51 277.905L1134.86 324.19C1133.37 329.217 1128.14 332.08 1123.17 330.578Z" stroke="#4D2C5E" stroke-opacity="0.19" stroke-width="4" stroke-miterlimit="10" stroke-linecap="round"/>
<path d="M1050.11 292.6L1136.47 318.717" stroke="#4D2C5E" stroke-opacity="0.19" stroke-width="4" stroke-miterlimit="10" stroke-linecap="round"/>
<path d="M1093.5 313.244C1093.13 314.499 1091.82 315.215 1090.58 314.839C1089.34 314.464 1088.63 313.138 1089 311.883C1089.38 310.627 1090.68 309.911 1091.92 310.287C1093.16 310.662 1093.87 311.988 1093.5 313.244Z" fill="#4D2C5E" fill-opacity="0.5"/>
<path d="M1098.68 323.179L1079.32 317.324L1076.71 326.166L1096.07 332.021L1098.68 323.179Z" stroke="#4D2C5E" stroke-opacity="0.19" stroke-width="4" stroke-miterlimit="10" stroke-linecap="round"/>
<path d="M1069.53 324.501L1102.95 334.609" stroke="#4D2C5E" stroke-opacity="0.19" stroke-width="4" stroke-miterlimit="10" stroke-linecap="round"/>
<path d="M1787.72 257.636C1809.15 257.636 1826.52 249.299 1826.52 239.016C1826.52 228.733 1809.15 220.397 1787.72 220.397C1766.29 220.397 1748.92 228.733 1748.92 239.016C1748.92 249.299 1766.29 257.636 1787.72 257.636Z" stroke="#4D2C5E" stroke-opacity="0.19" stroke-width="3" stroke-miterlimit="10" stroke-linecap="round" stroke-linejoin="round"/>
<path d="M1803.41 248.722C1814.56 230.193 1816.56 210.838 1807.88 205.491C1799.2 200.143 1783.14 210.829 1771.99 229.358C1760.85 247.886 1758.85 267.242 1767.53 272.589C1776.2 277.936 1792.27 267.25 1803.41 248.722Z" stroke="#4D2C5E" stroke-opacity="0.19" stroke-width="3" stroke-miterlimit="10" stroke-linecap="round" stroke-linejoin="round"/>
<path d="M1807.87 272.58C1816.55 267.233 1814.55 247.878 1803.4 229.349C1792.26 210.821 1776.19 200.135 1767.52 205.482C1758.84 210.83 1760.84 230.185 1771.99 248.713C1783.13 267.242 1799.2 277.928 1807.87 272.58Z" stroke="#4D2C5E" stroke-opacity="0.19" stroke-width="3" stroke-miterlimit="10" stroke-linecap="round" stroke-linejoin="round"/>
<path d="M1787.72 243.945C1790.41 243.945 1792.59 241.738 1792.59 239.016C1792.59 236.294 1790.41 234.087 1787.72 234.087C1785.03 234.087 1782.85 236.294 1782.85 239.016C1782.85 241.738 1785.03 243.945 1787.72 243.945Z" stroke="#4D2C5E" stroke-opacity="0.19" stroke-width="3" stroke-miterlimit="10" stroke-linecap="round" stroke-linejoin="round"/>
<path d="M1801.37 826.642L1769.33 834.13L1767.89 827.807C1767.56 826.342 1768.45 824.884 1769.9 824.542L1796.7 818.275C1798.15 817.94 1799.59 818.848 1799.93 820.313L1801.37 826.642Z" stroke="#4D2C5E" stroke-opacity="0.19" stroke-width="3" stroke-miterlimit="10" stroke-linecap="round"/>
<path d="M1790.84 792.643C1804.96 781.116 1807.18 760.182 1795.79 745.886C1784.41 731.589 1763.73 729.344 1749.6 740.872C1735.48 752.399 1733.26 773.333 1744.65 787.629C1756.04 801.925 1776.72 804.17 1790.84 792.643Z" stroke="#4D2C5E" stroke-opacity="0.19" stroke-width="3" stroke-miterlimit="10"/>
<path d="M1785.51 796.175L1754.87 737.349L1751.05 730.211C1731.08 740.866 1723.43 765.89 1733.95 786.106C1744.48 806.322 1769.2 814.067 1789.17 803.412L1785.43 796.224" stroke="#4D2C5E" stroke-opacity="0.19" stroke-width="3" stroke-miterlimit="10" stroke-linecap="round" stroke-linejoin="round"/>
<path d="M1761.63 750.239C1771.66 744.886 1778.28 737.654 1776.42 734.084C1774.56 730.515 1764.92 731.96 1754.89 737.313C1744.86 742.666 1738.24 749.899 1740.1 753.469C1741.96 757.038 1751.6 755.592 1761.63 750.239Z" stroke="#4D2C5E" stroke-opacity="0.19" stroke-width="3" stroke-miterlimit="10"/>
<path d="M1763.98 799.406C1771.06 800.788 1778.64 799.846 1785.51 796.175C1792.38 792.505 1797.43 786.713 1800.31 780.021C1793.23 778.639 1785.65 779.581 1778.78 783.252C1771.9 786.922 1766.86 792.714 1763.98 799.406Z" stroke="#4D2C5E" stroke-opacity="0.19" stroke-width="3" stroke-miterlimit="10"/>
<path d="M1785.53 796.139C1793.56 791.858 1793.2 775.218 1784.74 758.973C1776.28 742.728 1762.92 733.03 1754.89 737.312C1746.87 741.593 1747.23 758.233 1755.69 774.478C1764.15 790.723 1777.51 800.421 1785.53 796.139Z" stroke="#4D2C5E" stroke-opacity="0.19" stroke-width="3" stroke-miterlimit="10"/>
<path d="M1741.14 782.268L1799.25 751.257" stroke="#4D2C5E" stroke-opacity="0.19" stroke-width="3" stroke-miterlimit="10"/>
<path d="M1779.73 807.033L1783.12 821.353" stroke="#4D2C5E" stroke-opacity="0.19" stroke-width="3" stroke-miterlimit="10"/>
<path d="M1765.48 835.463L1806.33 825.547" stroke="#4D2C5E" stroke-opacity="0.19" stroke-width="3" stroke-miterlimit="10" stroke-linecap="round"/>
<path d="M1823.29 619.023L1840.39 601.719L1793.02 553.769L1775.93 571.073L1823.29 619.023Z" stroke="#4D2C5E" stroke-opacity="0.19" stroke-width="3" stroke-miterlimit="10" stroke-linecap="round" stroke-linejoin="round"/>
<path d="M1845.01 623.705L1840.38 601.715L1823.29 619.021L1845.01 623.705Z" stroke="#4D2C5E" stroke-opacity="0.19" stroke-width="3" stroke-miterlimit="10" stroke-linecap="round" stroke-linejoin="round"/>
<path d="M1842.85 613.445L1834.87 621.519" stroke="#4D2C5E" stroke-opacity="0.19" stroke-width="3" stroke-miterlimit="10" stroke-linecap="round" stroke-linejoin="round"/>
<path d="M1770.89 557.881L1779.98 548.68C1782.19 546.44 1785.77 546.44 1787.98 548.68L1793.01 553.768L1775.91 571.073L1770.89 565.985C1768.68 563.746 1768.68 560.112 1770.89 557.881Z" stroke="#4D2C5E" stroke-opacity="0.19" stroke-width="3" stroke-miterlimit="10" stroke-linecap="round" stroke-linejoin="round"/>
<path d="M1797.63 558.437L1780.53 575.75" stroke="#4D2C5E" stroke-opacity="0.19" stroke-width="3" stroke-miterlimit="10" stroke-linecap="round" stroke-linejoin="round"/>
<path d="M1831.83 610.368L1789.08 567.097" stroke="#4D2C5E" stroke-opacity="0.19" stroke-width="3" stroke-miterlimit="10" stroke-linecap="round" stroke-linejoin="round"/>
<path d="M487.034 828.206L483.887 835.466" stroke="#4D2C5E" stroke-opacity="0.19" stroke-width="4" stroke-miterlimit="10" stroke-linecap="round" stroke-linejoin="round"/>
<path d="M509.871 838.348L506.724 845.608" stroke="#4D2C5E" stroke-opacity="0.19" stroke-width="4" stroke-miterlimit="10" stroke-linecap="round" stroke-linejoin="round"/>
<path d="M532.714 848.484L529.567 855.743" stroke="#4D2C5E" stroke-opacity="0.19" stroke-width="4" stroke-miterlimit="10" stroke-linecap="round" stroke-linejoin="round"/>
<path d="M471.749 821.421L470.176 825.057" stroke="#4D2C5E" stroke-opacity="0.19" stroke-width="4" stroke-miterlimit="10" stroke-linecap="round" stroke-linejoin="round"/>
<path d="M479.391 824.82L477.818 828.444" stroke="#4D2C5E" stroke-opacity="0.19" stroke-width="4" stroke-miterlimit="10" stroke-linecap="round" stroke-linejoin="round"/>
<path d="M494.631 831.578L493.058 835.214" stroke="#4D2C5E" stroke-opacity="0.19" stroke-width="4" stroke-miterlimit="10" stroke-linecap="round" stroke-linejoin="round"/>
<path d="M502.268 834.97L500.7 838.6" stroke="#4D2C5E" stroke-opacity="0.19" stroke-width="4" stroke-miterlimit="10" stroke-linecap="round" stroke-linejoin="round"/>
<path d="M517.513 841.735L515.94 845.37" stroke="#4D2C5E" stroke-opacity="0.19" stroke-width="4" stroke-miterlimit="10" stroke-linecap="round" stroke-linejoin="round"/>
<path d="M540.726 852.04L539.158 855.671" stroke="#4D2C5E" stroke-opacity="0.19" stroke-width="4" stroke-miterlimit="10" stroke-linecap="round" stroke-linejoin="round"/>
<path d="M525.15 845.127L523.582 848.757" stroke="#4D2C5E" stroke-opacity="0.19" stroke-width="4" stroke-miterlimit="10" stroke-linecap="round" stroke-linejoin="round"/>
<path d="M527.773 910.09L452.363 812.82L550.951 856.577L527.773 910.09Z" stroke="#4D2C5E" stroke-opacity="0.19" stroke-width="4" stroke-miterlimit="10" stroke-linecap="round" stroke-linejoin="round"/>
<path d="M523.93 879.39L503.3 852.781L530.267 864.745L523.93 879.39Z" stroke="#4D2C5E" stroke-opacity="0.19" stroke-width="4" stroke-miterlimit="10" stroke-linecap="round" stroke-linejoin="round"/>
<path d="M712.012 196L683.588 209.912L740.241 328.527L768.665 314.614L712.012 196Z" stroke="#4D2C5E" stroke-opacity="0.19" stroke-width="4" stroke-miterlimit="10" stroke-linecap="round" stroke-linejoin="round"/>
<path d="M718.794 210.234L704.589 217.184" stroke="#4D2C5E" stroke-opacity="0.19" stroke-width="4" stroke-miterlimit="10" stroke-linecap="round" stroke-linejoin="round"/>
<path d="M731.923 237.714L717.708 244.674" stroke="#4D2C5E" stroke-opacity="0.19" stroke-width="4" stroke-miterlimit="10" stroke-linecap="round" stroke-linejoin="round"/>
<path d="M745.051 265.194L730.836 272.154" stroke="#4D2C5E" stroke-opacity="0.19" stroke-width="4" stroke-miterlimit="10" stroke-linecap="round" stroke-linejoin="round"/>
<path d="M758.17 292.684L743.964 299.634" stroke="#4D2C5E" stroke-opacity="0.19" stroke-width="4" stroke-miterlimit="10" stroke-linecap="round" stroke-linejoin="round"/>
<path d="M723.141 219.333L716.038 222.803" stroke="#4D2C5E" stroke-opacity="0.19" stroke-width="4" stroke-miterlimit="10" stroke-linecap="round" stroke-linejoin="round"/>
<path d="M727.527 228.524L720.424 232.004" stroke="#4D2C5E" stroke-opacity="0.19" stroke-width="4" stroke-miterlimit="10" stroke-linecap="round" stroke-linejoin="round"/>
<path d="M736.289 246.864L729.186 250.334" stroke="#4D2C5E" stroke-opacity="0.19" stroke-width="4" stroke-miterlimit="10" stroke-linecap="round" stroke-linejoin="round"/>
<path d="M740.675 256.054L733.572 259.534" stroke="#4D2C5E" stroke-opacity="0.19" stroke-width="4" stroke-miterlimit="10" stroke-linecap="round" stroke-linejoin="round"/>
<path d="M749.437 274.394L742.334 277.864" stroke="#4D2C5E" stroke-opacity="0.19" stroke-width="4" stroke-miterlimit="10" stroke-linecap="round" stroke-linejoin="round"/>
<path d="M753.833 283.583L746.72 287.063" stroke="#4D2C5E" stroke-opacity="0.19" stroke-width="4" stroke-miterlimit="10" stroke-linecap="round" stroke-linejoin="round"/>
<path d="M119.53 796.631L88.6794 811.301C87.0297 812.091 85.064 811.371 84.2836 809.701L82.3079 805.441C81.5275 803.771 82.2387 801.781 83.8884 800.991L114.739 786.321C116.388 785.531 118.354 786.251 119.135 787.921L121.11 792.181C121.891 793.861 121.179 795.851 119.53 796.631Z" stroke="#4D2C5E" stroke-opacity="0.19" stroke-width="4" stroke-miterlimit="10" stroke-linecap="round"/>
<path d="M131.513 829.951L116.418 798.131L91.9988 810.001L107.093 841.821L116.616 895.061C119.747 901.671 127.581 904.451 134.101 901.281L160.466 888.461C166.996 885.291 169.742 877.361 166.611 870.761L131.513 829.951Z" stroke="#4D2C5E" stroke-opacity="0.19" stroke-width="4" stroke-miterlimit="10" stroke-linecap="round"/>
<path d="M111.38 865.831C111.38 865.831 116.418 857.571 129.813 858.041C143.208 858.511 145.461 846.161 145.461 846.161" stroke="#4D2C5E" stroke-opacity="0.19" stroke-width="4" stroke-miterlimit="10" stroke-linecap="round"/>
<path d="M162.481 281.96C174.2 281.96 183.7 272.343 183.7 260.48C183.7 248.617 174.2 239 162.481 239C150.762 239 141.262 248.617 141.262 260.48C141.262 272.343 150.762 281.96 162.481 281.96Z" stroke="#4D2C5E" stroke-opacity="0.19" stroke-width="4" stroke-miterlimit="10" stroke-linecap="round" stroke-linejoin="round"/>
<path d="M192.225 303.18C196.911 303.18 200.71 299.334 200.71 294.59C200.71 289.846 196.911 286 192.225 286C187.538 286 183.739 289.846 183.739 294.59C183.739 299.334 187.538 303.18 192.225 303.18Z" stroke="#4D2C5E" stroke-opacity="0.19" stroke-width="4" stroke-miterlimit="10" stroke-linecap="round" stroke-linejoin="round"/>
</svg>
