<svg width="406" height="297" viewBox="0 0 406 297" fill="none" xmlns="http://www.w3.org/2000/svg">
<path d="M183.23 0.197965C164.566 2.47078 142.396 9.00514 125.817 17.1494C113.974 23.0208 96.6363 34.2902 84.8884 43.6656C73.0457 53.2304 54.0974 72.5493 42.6337 86.8492C32.3068 99.5391 13.1691 127.665 4.54759 142.533L0 150.393L2.7475 155.318C7.38984 163.841 22.6432 186.38 30.3173 196.229C58.7397 232.783 91.8045 261.193 125.059 277.861C167.503 299.074 213.737 302.767 257.413 288.372C298.72 274.735 342.775 239.601 378.397 191.872C385.977 181.645 398.009 163.273 403.03 154.276L405.209 150.299L401.988 145.28C376.218 104.369 357.554 80.1254 334.722 57.8707C308.857 32.775 284.414 17.2441 255.897 7.77403C238.085 1.90258 227.948 0.387367 205.968 0.103265C195.262 -0.0861369 185.03 0.00856382 183.23 0.197965ZM237.706 38.8359C268.308 45.2755 297.583 59.4806 324.395 80.6936C335.953 89.8796 358.691 113.081 374.324 131.643L387.872 147.647L385.029 151.151C363.239 178.709 329.795 210.15 305.068 226.343C272.476 247.746 243.391 257.595 208.81 258.826C163.05 260.436 119.185 243.863 76.1721 208.918C63.6663 198.691 34.2017 169.712 24.1591 157.496L17.2429 149.257L21.2221 143.954C54.0026 101.528 86.7832 72.8334 122.122 55.5032C137.47 48.0218 146.944 44.5179 163.429 40.4458C180.104 36.279 185.978 35.7108 207.389 36.0896C223.211 36.3737 228.232 36.7525 237.706 38.8359Z" fill="#553C9A"/>
<path d="M193.694 57.2019C171.575 59.4739 153.899 67.8993 137.829 83.9928C119.586 102.074 110.512 123.658 110.512 148.745C110.512 164.555 113.915 178.471 121.193 192.198C143.028 233.473 193.41 251.743 237.837 234.514C258.443 226.657 277.254 208.575 286.895 187.559C291.905 176.767 293.985 167.584 294.552 153.763C295.308 136.344 293.228 125.362 285.95 109.269C278.577 92.6075 261.468 74.9047 244.548 66.3846C230.369 59.1899 209.763 55.4979 193.694 57.2019ZM209.29 89.1995C211.842 91.7555 212.599 97.8142 210.519 99.8969C209.668 100.749 214.773 101.033 233.678 101.033C247.006 101.033 257.971 101.317 257.971 101.601C257.971 101.885 256.647 104.536 254.946 107.565L251.921 113.056L261.657 138.521C267.045 152.532 272.055 164.46 272.811 165.123C274.04 166.069 273.756 167.016 270.826 171.371C264.871 180.364 257.971 184.34 248.613 184.34C239.066 184.34 232.732 180.743 226.777 171.749C222.807 165.88 222.24 164.271 224.131 164.744C224.887 164.839 228.951 155.845 234.906 140.793C240.2 127.54 244.832 115.706 245.115 114.476L245.777 112.393H227.345H208.818V155.656V199.014L211.748 198.919C221.389 198.635 229.991 201.948 236.135 208.386L239.444 211.794H203.146H166.849L170.157 208.386C176.207 202.043 185.186 198.54 195.301 198.54H198.42L198.325 155.467L198.231 112.393H179.042H159.948L164.864 124.889C167.605 131.8 172.236 143.728 175.261 151.491C178.192 159.159 181.027 165.123 181.5 164.839C183.39 163.703 182.162 167.111 179.042 171.749C171.764 182.636 159.948 187.18 148.889 183.394C144.352 181.879 136.979 175.157 133.67 169.667C131.024 165.028 130.835 164.365 132.536 164.933C133.292 165.312 136.979 156.887 143.974 139.279C155.127 110.784 154.749 113.15 149.74 105.009L147.282 101.033H172.426H197.475L195.962 98.6662C191.047 91.1875 202.863 82.6674 209.29 89.1995Z" fill="#553C9A"/>
<path d="M148.614 144.432C144.148 155.621 140.442 165.009 140.442 165.293C140.442 165.578 147.949 165.768 157.166 165.768C170.184 165.768 173.795 165.483 173.415 164.535C173.13 163.966 169.424 154.673 165.243 144.052C160.967 133.432 157.356 124.518 157.166 124.329C156.976 124.139 153.175 133.147 148.614 144.432Z" fill="#553C9A"/>
<path d="M247.846 125.443C247.371 126.694 243.757 136.125 239.763 146.327C235.768 156.625 232.535 165.19 232.535 165.383C232.535 165.575 239.953 165.768 249.082 165.768H265.535L257.546 144.883C253.172 133.431 249.368 123.807 249.178 123.614C248.987 123.325 248.322 124.191 247.846 125.443Z" fill="#553C9A"/>
</svg>
