<svg width="512" height="411" viewBox="0 0 512 411" fill="none" xmlns="http://www.w3.org/2000/svg">
<path d="M267.484 3.81253C268.596 4.21284 269.708 4.61315 270.853 5.02559C274.49 6.33838 278.12 7.66905 281.75 9.00003C284.289 9.92226 286.83 10.8406 289.371 11.7591C295.742 14.0648 302.107 16.3865 308.472 18.712C313.589 20.5801 318.71 22.4369 323.832 24.293C330.983 26.8862 338.131 29.4872 345.277 32.0938C355.421 35.793 365.572 39.4695 375.726 43.1397C378.626 44.1879 381.525 45.2364 384.425 46.2849C393.003 49.3869 401.582 52.488 410.161 55.5865C423.771 60.5019 437.377 65.424 450.978 70.3642C457.189 72.6199 463.403 74.8667 469.622 77.1009C472.924 78.2898 476.223 79.4885 479.52 80.6906C480.982 81.2212 482.445 81.7477 483.91 82.2694C499.1 87.6832 499.1 87.6832 503.351 94.0117C505.003 99.0752 504.882 104.958 502.625 109.813C496.466 118.799 479.976 122.049 470 125C469.34 125 468.68 125 468 125C467.186 141.909 466.617 158.808 466.319 175.733C466.174 183.598 465.957 191.448 465.555 199.304C462.691 240.537 462.691 240.537 480.651 276.048C488.149 283.737 496.37 290.544 505.035 296.871C509.164 299.96 511.58 302.641 512.504 307.832C512.523 308.816 512.542 309.799 512.562 310.813C512.605 311.788 512.647 312.764 512.691 313.77C510.932 321.99 503.515 327.396 497.355 332.539C476.615 349.261 476.615 349.261 466.484 372.676C465.996 379.92 466.441 387.312 467.661 394.472C468.247 398.301 468.053 399.902 466.172 403.362C463.34 406.801 461.223 408.592 457 410C451.381 410.368 447.843 410.192 443 407C439.698 403.606 438.164 400.568 437 396C437.3 392.725 437.3 392.725 437.957 389.129C439.338 378.649 440.251 367.581 434.273 358.327C425.397 346.843 414.243 337.044 403.26 327.619C402.483 326.95 401.705 326.281 400.905 325.592C400.222 325.016 399.538 324.44 398.835 323.846C394.741 319.727 393.298 315.763 393 310C393.829 302.677 398.713 297.845 404 293C405.871 291.544 407.782 290.159 409.708 288.778C421.966 279.924 434.492 269.654 437.746 254.214C440.283 237.496 439.467 220.307 438.75 203.468C438.448 196.204 438.336 188.941 438.237 181.672C438.029 166.773 437.595 151.889 437 137C436.011 137.364 435.022 137.727 434.002 138.102C430.34 139.447 426.675 140.787 423.011 142.127C421.423 142.708 419.836 143.29 418.25 143.873C415.972 144.71 413.693 145.543 411.414 146.375C410.702 146.638 409.991 146.9 409.258 147.17C404.228 149 404.228 149 402 149C402.009 150.248 402.018 151.495 402.027 152.781C402.108 164.551 402.168 176.321 402.207 188.092C402.228 194.143 402.256 200.194 402.302 206.245C402.345 212.087 402.369 217.928 402.379 223.771C402.387 225.997 402.401 228.223 402.423 230.449C402.452 233.573 402.456 236.696 402.454 239.82C402.468 240.736 402.483 241.652 402.498 242.595C402.449 250.245 400.249 255.695 395.125 261.375C360.006 294.313 306.292 302.923 260 304C258.707 304.033 258.707 304.033 257.389 304.066C206.53 305.176 145.501 299.447 106.105 263.348C97.3247 254.793 97.3247 254.793 96.7538 249.884C96.7566 248.739 96.7566 248.739 96.7594 247.571C96.7567 246.69 96.7539 245.81 96.7511 244.902C96.7619 243.465 96.7619 243.465 96.7729 241.999C96.7726 240.984 96.7723 239.969 96.772 238.923C96.7734 235.569 96.7889 232.214 96.8046 228.859C96.8083 226.533 96.8112 224.207 96.8132 221.881C96.8208 215.759 96.8405 209.637 96.8626 203.515C96.883 197.268 96.8922 191.021 96.9023 184.773C96.9237 172.516 96.9578 160.258 96.9999 148C96.0071 147.707 96.0071 147.707 94.9943 147.408C90.5682 146.092 86.162 144.777 81.8268 143.182C80.9392 142.857 80.0516 142.532 79.1371 142.197C78.2088 141.853 77.2805 141.51 76.3241 141.156C74.83 140.608 74.83 140.608 73.3056 140.048C70.0983 138.868 66.8927 137.685 63.6874 136.5C61.4793 135.685 59.2712 134.871 57.0631 134.056C51.6764 132.067 46.2916 130.073 40.9075 128.077C38.2636 127.098 35.6188 126.121 32.9735 125.146C28.916 123.649 24.8636 122.139 20.8124 120.625C19.6705 120.204 18.5287 119.783 17.3522 119.35C11.1883 117.026 5.64033 114.904 1.12491 109.938C-0.96026 104.493 -1.00059 98.4749 1.18741 93.0625C5.09782 88.6127 9.11728 86.322 14.6562 84.3203C15.6601 83.9531 15.6601 83.9531 16.6844 83.5784C18.953 82.7513 21.2263 81.9383 23.4999 81.125C25.1537 80.5254 26.8072 79.925 28.4604 79.3238C33.2203 77.5961 37.9849 75.8815 42.7503 74.169C48.0486 72.2631 53.3439 70.3491 58.6397 68.4361C67.1277 65.3702 75.6167 62.3071 84.1078 59.2498C99.3724 53.7534 114.631 48.2398 129.875 42.6875C149.543 35.5251 169.225 28.4004 188.911 21.2858C196.377 18.5871 203.843 15.8858 211.309 13.1836C214.568 12.0042 217.827 10.8247 221.086 9.64526C223.183 8.88621 225.28 8.12703 227.377 7.36774C230.277 6.31774 233.178 5.26821 236.078 4.21878C236.941 3.9061 237.805 3.59341 238.694 3.27126C239.485 2.98517 240.276 2.69908 241.091 2.40433C241.777 2.15582 242.464 1.90731 243.171 1.65128C252.238 -1.57761 258.765 0.58289 267.484 3.81253ZM246.828 33.4109C245.952 33.7244 245.076 34.0378 244.173 34.3608C243.209 34.7097 242.244 35.0586 241.25 35.418C240.235 35.7823 239.22 36.1465 238.174 36.5218C234.782 37.7405 231.391 38.964 228 40.1875C225.605 41.0491 223.211 41.9105 220.816 42.7718C213.841 45.2817 206.868 47.7974 199.896 50.3154C198.036 50.9872 196.175 51.6588 194.315 52.3304C177.433 58.4266 160.557 64.5403 143.685 70.6631C139.948 72.0188 136.211 73.374 132.475 74.729C126.286 76.9733 120.097 79.2194 113.91 81.4666C111.605 82.3033 109.301 83.1397 106.996 83.9756C91.6263 89.5514 76.297 95.2278 60.9999 101C63.1579 103.158 64.4836 103.695 67.318 104.717C68.6739 105.211 68.6739 105.211 70.0572 105.715C71.0476 106.07 72.0381 106.424 73.0585 106.789C74.0918 107.164 75.1252 107.539 76.1898 107.925C78.4285 108.737 80.668 109.546 82.9083 110.353C88.9026 112.513 94.8901 114.692 100.879 116.867C102.09 117.307 103.301 117.746 104.549 118.198C115.011 121.996 125.448 125.856 135.875 129.75C138.439 130.707 141.003 131.663 143.566 132.619C145.366 133.29 147.165 133.962 148.964 134.633C161.96 139.48 174.966 144.299 187.97 149.122C189.956 149.859 191.942 150.595 193.928 151.332C194.564 151.568 195.201 151.804 195.856 152.047C197.129 152.519 198.401 152.991 199.673 153.464C202.784 154.618 205.896 155.77 209.01 156.918C214.598 158.981 220.179 161.058 225.731 163.216C227.603 163.943 229.479 164.662 231.354 165.382C233.678 166.274 235.998 167.179 238.312 168.099C247.426 171.575 253.176 170.549 262.059 167.211C262.85 166.92 263.641 166.63 264.456 166.33C266.194 165.691 267.931 165.049 269.668 164.404C274.578 162.58 279.497 160.781 284.414 158.977C285.485 158.583 286.556 158.189 287.659 157.784C296.164 154.662 304.684 151.583 313.211 148.523C314.189 148.172 314.189 148.172 315.187 147.814C318.536 146.613 321.885 145.412 325.235 144.212C349.68 135.45 374.102 126.627 398.499 117.733C400.592 116.971 402.685 116.208 404.777 115.445C405.775 115.082 406.772 114.718 407.8 114.344C419.189 110.197 430.593 106.097 442 102C440.447 98.8943 437.426 98.5227 434.305 97.4453C433.592 97.1925 432.879 96.9396 432.144 96.6791C430.567 96.1204 428.989 95.5651 427.41 95.0125C422.955 93.4531 418.51 91.8687 414.062 90.2891C413.099 89.9476 412.135 89.606 411.141 89.2541C400.504 85.481 389.901 81.6154 379.298 77.7483C355.974 69.243 332.628 60.8024 309.27 52.3916C286.253 44.1033 286.253 44.1033 274.887 39.9453C274.082 39.6511 273.277 39.3569 272.447 39.0538C268.898 37.7558 265.349 36.4545 261.803 35.1465C260.637 34.7192 259.471 34.2919 258.269 33.8516C257.286 33.4889 256.302 33.1262 255.288 32.7525C251.882 31.6323 250.126 32.2245 246.828 33.4109ZM128 160C127.768 170.422 127.59 180.844 127.482 191.269C127.43 196.11 127.359 200.949 127.246 205.79C127.137 210.465 127.077 215.138 127.051 219.814C127.033 221.594 126.997 223.374 126.943 225.153C126.385 235.056 126.385 235.056 130.165 243.843C132.692 245.9 135.121 247.486 138 249C138.634 249.397 139.268 249.793 139.921 250.202C163.583 264.687 193.799 269.618 221 272C222.225 272.111 223.449 272.222 224.711 272.336C271.913 275.937 327.255 272.262 367 244C367.708 243.625 368.416 243.249 369.146 242.862C371.499 240.499 371.472 238.739 371.498 235.486C371.483 234.74 371.469 233.993 371.454 233.224C371.455 232.433 371.455 231.643 371.456 230.829C371.453 228.215 371.422 225.602 371.391 222.988C371.383 221.177 371.377 219.365 371.373 217.553C371.358 212.784 371.319 208.015 371.275 203.246C371.234 198.379 371.215 193.513 371.195 188.647C371.152 179.097 371.084 169.549 371 160C352.296 166.585 333.599 173.186 314.947 179.915C311.806 181.047 308.664 182.176 305.521 183.304C295.93 186.751 286.352 190.223 276.816 193.82C274.572 194.661 272.327 195.5 270.082 196.34C268.073 197.097 266.072 197.872 264.07 198.648C248.925 204.316 239.802 200.966 225.25 195.438C223.363 194.735 221.475 194.033 219.586 193.333C215.404 191.78 211.226 190.217 207.05 188.647C195.759 184.403 184.448 180.212 173.139 176.015C168.994 174.476 164.85 172.932 160.708 171.384C158.09 170.406 155.471 169.43 152.852 168.455C151.054 167.785 149.258 167.111 147.462 166.438C141.035 164.047 134.6 161.864 128 160ZM449.937 291.836C449.11 292.674 448.282 293.512 447.43 294.375C446.534 295.277 445.638 296.18 444.715 297.109C443.768 298.073 442.821 299.036 441.875 300C440.921 300.964 439.967 301.928 439.012 302.891C436.67 305.256 434.333 307.626 432 310C433.486 313.466 435.457 315.69 438.133 318.328C438.938 319.127 439.744 319.927 440.574 320.75C441.416 321.575 442.258 322.4 443.125 323.25C443.974 324.09 444.824 324.931 445.699 325.797C447.795 327.869 449.895 329.937 452 332C455.466 330.513 457.69 328.543 460.328 325.867C461.127 325.062 461.926 324.256 462.75 323.426C463.575 322.584 464.4 321.742 465.25 320.875C466.09 320.026 466.931 319.176 467.797 318.301C469.869 316.205 471.937 314.105 474 312C472.518 308.564 470.57 306.313 467.937 303.672C467.141 302.873 466.344 302.073 465.523 301.25C464.691 300.425 463.858 299.6 463 298.75C462.167 297.91 461.334 297.069 460.476 296.203C459.68 295.409 458.883 294.615 458.062 293.797C457.332 293.068 456.601 292.34 455.848 291.589C453.163 289.28 452.572 289.491 449.937 291.836Z" fill="#44338B"/>
</svg>
